<?xml version="1.0" encoding="UTF-8"?><svg id="Layer_2" xmlns="http://www.w3.org/2000/svg" viewBox="0 0 182.6 9.99"><g id="Layer_2-2"><path d="m.06,6.58h2.52c0,.82.59,1.48,3,1.48,2.55,0,2.97-.51,2.97-1.17,0-.4-.25-.63-.76-.75-.6-.13-2.08-.19-3.15-.25-1.27-.07-2.68-.23-3.47-.64-.7-.37-1.17-1.05-1.17-1.99C0,1.46,1.73,0,5.55,0c4.58,0,5.38,1.58,5.38,3.33h-2.52c0-.88-.86-1.39-2.86-1.39s-2.74.42-2.74,1.11c0,.37.21.59.62.72.53.16,1.98.22,3.06.29,1.41.09,2.61.21,3.43.54.92.38,1.45,1.14,1.45,2.07,0,1.52-.82,3.33-5.79,3.33S.06,7.87.06,6.58Z"/><path d="m12.78.18h5.8c3.3,0,4.75,1.16,4.75,3.46s-1.42,3.34-4.82,3.34h-2.92v2.84h-2.81V.18Zm5.67,5.01c1.51,0,2.21-.47,2.21-1.46s-.63-1.46-2.2-1.46h-2.87v2.93h2.86Z"/><path d="m24.52.18h6.06c3.57,0,4.69,1.13,4.69,2.86,0,.97-.41,1.9-1.74,2.3v.03c1.52.35,1.68,1.42,1.68,2.43v2.02h-2.81v-2.02c0-1-.38-1.45-1.58-1.45h-3.49v3.47h-2.81V.18Zm6.2,4.53c1.39,0,1.89-.51,1.89-1.26,0-.69-.51-1.19-2.14-1.19h-3.13v2.45h3.38Z"/><path d="m36.59,4.95c0-2.67,1.98-4.95,6.33-4.95s6.33,2.29,6.33,4.95-1.83,5.04-6.33,5.04-6.33-2.15-6.33-5.04Zm9.7.01c0-1.57-1.08-2.89-3.37-2.89s-3.37,1.32-3.37,2.89c0,1.73,1.07,2.94,3.37,2.94s3.37-1.29,3.37-2.94Z"/><path d="m50.48,5.51V.18h2.81v5.02c0,1.85,1.14,2.56,3.02,2.56s3.02-.72,3.02-2.56V.18h2.52v5.33c0,3.05-2.14,4.48-5.67,4.48s-5.7-1.44-5.7-4.48Z"/><path d="m66.74,2.26h-3.79V.18h10.4v2.08h-3.79v7.56h-2.81V2.26Z"/><path d="m91.53,7.94v2.01c-.15.03-.38.04-.59.04-1.27,0-2.58-.32-3.81-.92-1.11.6-2.37.92-3.76.92-3.11,0-4.61-1.68-4.61-3.38,0-1.27.92-2.67,3.24-2.77-.16-.42-.23-.81-.23-1.16,0-1.38,1.07-2.68,3.52-2.68s3.49,1.23,3.49,2.64c0,1.49-1.29,2.42-3.24,2.45h-.01c.48.57,1.13,1.11,1.82,1.57.66-.62,1.23-1.38,1.61-2.27h2.31c-.53,1.25-1.23,2.33-2.09,3.19.73.25,1.45.37,2.07.37h.31Zm-7.94.18c.57,0,1.11-.07,1.63-.23-.98-.75-1.86-1.66-2.48-2.62h-.04c-1.07.09-1.33.78-1.33,1.26,0,.81.79,1.6,2.23,1.6Zm.78-5.24c0,.31.1.6.26.92,1.45-.01,1.82-.37,1.82-1.07,0-.41-.34-.85-1.03-.85s-1.05.44-1.05,1Z"/><path d="m97.04,6.58h2.52c0,.82.59,1.48,3,1.48,2.55,0,2.97-.51,2.97-1.17,0-.4-.25-.63-.76-.75-.6-.13-2.08-.19-3.15-.25-1.27-.07-2.68-.23-3.47-.64-.7-.37-1.17-1.05-1.17-1.99,0-1.79,1.73-3.25,5.55-3.25,4.58,0,5.38,1.58,5.38,3.33h-2.52c0-.88-.86-1.39-2.86-1.39s-2.74.42-2.74,1.11c0,.37.21.59.62.72.53.16,1.98.22,3.06.29,1.41.09,2.61.21,3.43.54.92.38,1.45,1.14,1.45,2.07,0,1.52-.82,3.33-5.79,3.33s-5.52-2.12-5.52-3.41Z"/><path d="m109.44,5.01c0-2.86,2.04-5.01,6.05-5.01,4.25,0,5.62,2.31,5.62,3.93,0,.03,0,.15-.01.23h-2.5v-.06c0-.89-.89-2.02-2.97-2.02s-3.22,1.27-3.22,2.93c0,1.54.91,2.9,3.24,2.9,1.99,0,3-.91,3-1.98v-.09h2.5c.01.07.01.18.01.21,0,1.88-1.52,3.94-5.64,3.94-4.57,0-6.08-2.49-6.08-4.98Z"/><path d="m122.5.18h6.06c3.57,0,4.69,1.13,4.69,2.86,0,.97-.41,1.9-1.74,2.3v.03c1.52.35,1.68,1.42,1.68,2.43v2.02h-2.81v-2.02c0-1-.38-1.45-1.58-1.45h-3.49v3.47h-2.81V.18Zm6.2,4.53c1.39,0,1.89-.51,1.89-1.26,0-.69-.51-1.19-2.14-1.19h-3.13v2.45h3.38Z"/><path d="m134.96.18h2.81v9.64h-2.81V.18Z"/><path d="m139.52.18h6.12c3.56,0,4.1,1.42,4.1,2.55,0,.78-.37,1.71-1.66,2.05h0c1.63.29,2.14,1.35,2.14,2.21,0,1.57-.82,2.83-4.37,2.83h-6.34V.18Zm6.2,3.91c1.17,0,1.58-.38,1.58-1,0-.56-.45-.98-1.76-.98h-3.21v1.98h3.38Zm.01,3.81c1.42,0,1.83-.45,1.83-1.16,0-.53-.47-1.01-1.77-1.01h-3.46v2.17h3.4Z"/><path d="m151.57.18h6.12c3.56,0,4.1,1.42,4.1,2.55,0,.78-.37,1.71-1.66,2.05h0c1.63.29,2.14,1.35,2.14,2.21,0,1.57-.82,2.83-4.37,2.83h-6.34V.18Zm6.2,3.91c1.17,0,1.58-.38,1.58-1,0-.56-.45-.98-1.76-.98h-3.21v1.98h3.38Zm.01,3.81c1.42,0,1.83-.45,1.83-1.16,0-.53-.47-1.01-1.77-1.01h-3.46v2.17h3.4Z"/><path d="m163.62.18h2.81v7.41h5.71v2.23h-8.53V.18Z"/><path d="m173.34.18h9.11v2.08h-6.3v1.89h4.83v1.64h-4.83v1.95h6.45v2.08h-9.26V.18Z"/></g></svg>